# xmcd
#
# Track frame offsets:
#	150
#	15880
#	32083
#	47318
#	59048
#	81753
#	95318
#	111435
#	123173
#	137355
#	152015
#	164478
#	185498
#
# Disc length: 2665 seconds
#
# Revision: 0
# Processed by: cddbd v1.5.2PL0 Copyright (c) Steve Scherf et al.
# Submitted via: audiograbber 1.83.01
#
DISCID=9b0a670d
DTITLE=Dete "Boogie Doc" Kuhlmann And The Preachers - Rock `N` Roll Preacher
DYEAR=1993
DGENRE=
TTITLE0=Rock `n` Roll Preacher
TTITLE1=I Wanna Love You
TTITLE2=Don´t Be Afraid
TTITLE3=You´ve Got Everything
TTITLE4=Don´t Play With My Heart
TTITLE5=Ain´t That Nice
TTITLE6=No One Like You
TTITLE7=Till The End Of Time
TTITLE8=She´s Lookin´ So Fine
TTITLE9=A Helping Hand
TTITLE10=Please, Be Mine
TTITLE11=That´s My Home
TTITLE12=No One Like You (Unplugged)
EXTD=
EXTT0=
EXTT1=
EXTT2=
EXTT3=
EXTT4=
EXTT5=
EXTT6=
EXTT7=
EXTT8=
EXTT9=
EXTT10=
EXTT11=
EXTT12=
PLAYORDER=
